<svg xmlns="http://www.w3.org/2000/svg" viewBox="0 0 100 100" fill="none" shape-rendering="auto" aria-hidden="true" width="96" height="96"><!-- Generated by DiceBear (https://www.dicebear.com) --><metadata xmlns:rdf="http://www.w3.org/1999/02/22-rdf-syntax-ns#" xmlns:xsi="http://www.w3.org/2001/XMLSchema-instance" xmlns:dc="http://purl.org/dc/elements/1.1/" xmlns:dcterms="http://purl.org/dc/terms/"><rdf:RDF><rdf:Description><dc:title>Thumbs</dc:title><dc:creator>DiceBear</dc:creator><dc:source xsi:type="dcterms:URI">https://www.dicebear.com</dc:source><dcterms:license xsi:type="dcterms:URI">https://creativecommons.org/publicdomain/zero/1.0/</dcterms:license><dc:rights>“Thumbs” (https://www.dicebear.com) by “DiceBear”, licensed under “CC0 1.0” (https://creativecommons.org/publicdomain/zero/1.0/)</dc:rights></rdf:Description></rdf:RDF></metadata><defs><g id="eyes-variant06-d49199c6"><path d="M16 8c0 3.31-1.34 6-3 6s-3-2.69-3-6 1.34-6 3-6 3 2.69 3 6" fill="#ffffff"/></g><g id="mouth-variant04-d49199c6"><path d="M15 10C6.79 10 3.02 3.88 4.22 3.12 5.42 2.35 6.1 6.6 15 6.49c8.9-.12 9.58-4.23 10.78-3.37S23.21 10 15 10" fill="#ffffff"/></g><g id="head-default-d49199c6"><g class="dbth-f"><g class="dbth-eyes"><use transform="translate(1.47176, 1.10338)" href="#eyes-variant06-d49199c6"/></g><g class="dbth-eyes"><use transform="matrix(-1 0 0 1 44 0) translate(1.47176, 1.10338)" href="#eyes-variant06-d49199c6"/></g><use transform="translate(7 26) translate(0, -0.75358)" href="#mouth-variant04-d49199c6"/></g></g><g id="body-default-d49199c6"><path d="M45 0c24.85 0 45 19.4 45 43.33V130H0V43.33C0 19.4 20.15 0 45 0" fill="#0a5b83"/><use transform="translate(24 24) translate(4.58198, 4.45696) rotate(12.2911, 22, 20)" href="#head-default-d49199c6"/></g><g id="animation-none-d49199c6"></g><clipPath id="clip-d49199c6"><rect width="100" height="100" rx="0" ry="0"/></clipPath></defs><g clip-path="url(#clip-d49199c6)"><rect width="100" height="100" fill="#f1f4dc"/><g class="dbth-c"><use transform="translate(5 10) translate(-0.5337, -5.49575) rotate(8.7352, 45, 65)" href="#body-default-d49199c6"/></g><use href="#animation-none-d49199c6"/></g></svg>